<svg xmlns="http://www.w3.org/2000/svg" enable-background="new 0 0 24 24" viewBox="0 0 24 24" id="kotlin"><linearGradient id="a" x1="-125.525" x2="-124.528" y1="61.165" y2="62.162" gradientTransform="matrix(20 0 0 -20 2508 1244.27)" gradientUnits="userSpaceOnUse"><stop offset=".108" stop-color="#c757bc"></stop><stop offset=".173" stop-color="#cd5ca9"></stop><stop offset=".492" stop-color="#e8744f"></stop><stop offset=".716" stop-color="#f88316"></stop><stop offset=".823" stop-color="#ff8900"></stop></linearGradient><path fill="url(#a)" d="M12.941,0.75L1.041,14.216l-0.219,8.197L22.012,0.75H12.941z"></path><linearGradient id="b" x1="-124.912" x2="-124.513" y1="60.924" y2="61.324" gradientTransform="matrix(20 0 0 -20 2508 1244.27)" gradientUnits="userSpaceOnUse"><stop offset=".296" stop-color="#00afff"></stop><stop offset=".694" stop-color="#5282ff"></stop><stop offset="1" stop-color="#945dff"></stop></linearGradient><path fill="url(#b)" d="M4.929,21.786l7.222-7.235c0.448-0.449,1.175-0.448,1.621,0.002l7.183,7.235c0.717,0.722,0.205,1.95-0.812,1.95H5.739C4.72,23.738,4.209,22.507,4.929,21.786z"></path><linearGradient id="c" x1="-125.373" x2="-125.085" y1="61.915" y2="62.203" gradientTransform="matrix(20 0 0 -20 2508 1244.27)" gradientUnits="userSpaceOnUse"><stop offset=".296" stop-color="#00afff"></stop><stop offset=".694" stop-color="#5282ff"></stop><stop offset="1" stop-color="#945dff"></stop></linearGradient><path fill="url(#c)" d="M0.75,0.967h9.11l-9.11,9.581V0.967z"></path><path d="M.821 23.163c-.096 0-.193-.019-.285-.057-.281-.115-.465-.39-.465-.693v-7.957c0-.187.069-.367.195-.505L12.745.245C12.888.089 13.089 0 13.3 0h8.95c.303 0 .575.182.692.461.116.279.054.602-.159.816L1.354 22.94C1.211 23.086 1.018 23.163.821 23.163zM1.571 14.746v5.843L20.453 1.5h-6.822L1.571 14.746zM.75 11.417c-.092 0-.185-.017-.274-.052C.188 11.253 0 10.976 0 10.667v-9.82c0-.414.336-.75.75-.75h9.11c.298 0 .568.177.688.45s.065.591-.138.81l-9.11 9.82C1.155 11.333.954 11.417.75 11.417zM1.5 1.597v7.159l6.642-7.159H1.5zM22.013 24H3.87c-.302 0-.573-.181-.691-.458-.117-.278-.057-.599.154-.815l9.005-9.25c.142-.146.313-.219.537-.227.2 0 .393.08.533.223l9.138 9.25c.213.216.275.537.159.816C22.588 23.818 22.315 24 22.013 24zM5.646 22.5h14.571l-7.339-7.429L5.646 22.5z"></path></svg>